<?xml version="1.0" standalone="no"?>
<!DOCTYPE svg PUBLIC "-//W3C//DTD SVG 20010904//EN"
 "http://www.w3.org/TR/2001/REC-SVG-20010904/DTD/svg10.dtd">
<svg version="1.0" xmlns="http://www.w3.org/2000/svg"
 width="512.000000pt" height="512.000000pt" viewBox="0 0 512.000000 512.000000"
 preserveAspectRatio="xMidYMid meet">
<metadata>
Created by potrace 1.14, written by Peter Selinger 2001-2017
</metadata>
<g transform="translate(0.000000,512.000000) scale(0.100000,-0.100000)"
fill="#000000" stroke="none">
<path d="M1658 3493 c-84 -111 -119 -234 -85 -302 15 -30 15 -31 -15 -56 -43
-37 -138 -83 -205 -100 -164 -43 -370 8 -568 140 -46 30 -90 55 -98 55 -24 0
-57 -49 -57 -85 0 -17 -25 -103 -56 -191 -71 -204 -115 -379 -118 -473 -2 -66
-5 -76 -25 -85 l-23 -10 4 -235 c2 -174 7 -242 16 -260 14 -23 15 -23 125 -15
169 12 678 8 1417 -11 717 -19 1636 -16 1895 5 336 27 616 84 755 153 113 56
124 76 116 207 -7 115 -38 250 -71 306 -53 90 -149 143 -324 179 -101 20 -285
33 -436 29 -89 -2 -116 1 -145 16 -19 10 -52 22 -72 28 -35 10 -42 7 -108 -35
-67 -43 -70 -46 -70 -84 0 -83 -83 -118 -141 -60 -32 33 -36 58 -14 100 16 31
33 41 73 41 23 0 121 57 122 71 0 3 -31 18 -70 33 -79 30 -71 32 -182 -40 -53
-35 -65 -48 -61 -64 7 -26 -15 -78 -38 -90 -10 -6 -33 -10 -53 -10 -56 0 -93
65 -70 125 8 19 55 45 83 45 26 0 166 90 154 99 -4 4 -57 29 -116 54 l-108 47
-42 -29 c-23 -16 -60 -44 -81 -63 -36 -31 -40 -40 -41 -82 0 -38 -6 -52 -24
-67 -33 -27 -92 -25 -119 4 -47 50 -12 147 53 147 17 0 49 20 93 57 37 31 68
60 70 63 3 7 -177 90 -195 90 -14 0 -122 -76 -160 -113 -25 -23 -31 -36 -27
-54 4 -13 1 -37 -6 -54 -35 -83 -160 -59 -160 32 0 48 23 77 68 85 20 4 53 21
72 38 19 17 56 47 83 65 26 19 44 38 40 42 -5 4 -43 23 -85 42 l-77 35 -56
-34 c-31 -18 -79 -52 -106 -75 -44 -37 -49 -45 -44 -73 15 -85 -84 -137 -145
-76 -44 44 -11 140 48 140 12 0 57 29 101 64 43 35 87 68 97 74 10 6 16 13 13
17 -10 9 -322 145 -334 145 -7 0 -39 -33 -74 -72 l-62 -73 28 -7 c65 -18 84
-100 34 -147 -28 -27 -29 -28 -17 -79 6 -28 16 -56 22 -62 13 -13 255 -119
394 -172 329 -126 614 -208 879 -255 140 -25 180 -28 388 -28 171 0 233 -3
233 -12 0 -18 -117 -26 -309 -20 -413 13 -881 141 -1500 411 l-83 36 6 -52 c3
-29 2 -71 -4 -93 -12 -51 -58 -95 -93 -88 -17 3 -37 -3 -56 -17 -28 -19 -51
-20 -51 -1 0 4 17 17 38 29 52 30 91 68 98 98 7 29 -2 129 -14 150 -7 13 -178
104 -195 104 -5 0 -27 -15 -50 -33 -109 -88 -254 -156 -390 -183 -107 -22
-234 -14 -348 22 -143 44 -367 174 -350 202 5 9 31 -3 89 -42 171 -114 307
-160 477 -160 284 1 513 140 823 502 47 54 52 63 35 68 -10 4 -33 13 -52 20
-44 18 -66 18 -108 -3 -35 -16 -36 -16 -109 20 -41 21 -82 37 -92 37 -10 0
-34 -21 -54 -47z m135 -24 c23 -12 44 -23 46 -25 2 -2 -20 -30 -50 -61 -30
-32 -65 -71 -77 -88 l-23 -29 -24 29 c-29 36 -30 44 -9 93 15 37 70 102 86
102 5 0 28 -10 51 -21z m2554 -808 c97 -20 202 -62 228 -90 14 -17 8 -18 -92
-29 -102 -11 -444 -42 -470 -42 -7 0 -22 21 -33 48 -12 26 -40 69 -62 96 l-42
49 190 -6 c127 -4 219 -13 281 -26z m-2469 -27 c31 -36 29 -79 -7 -115 -38
-38 -74 -38 -112 0 -33 33 -38 74 -13 109 33 48 92 50 132 6z m375 24 c33 -17
46 -39 47 -79 0 -76 -96 -113 -146 -55 -33 38 -31 80 5 117 31 31 59 36 94 17z
m2386 -180 c6 -17 8 -35 3 -40 -34 -34 -755 -123 -1167 -143 -66 -3 -135 -8
-152 -11 -32 -5 -33 -6 -33 -53 l0 -48 -52 -7 c-92 -10 -471 -7 -950 10 -494
18 -1492 24 -1646 11 l-92 -8 0 66 c0 70 -1 72 -58 56 -30 -9 -32 -8 -32 17 0
52 16 55 375 64 182 4 438 6 570 3 217 -4 620 -10 1510 -19 499 -5 873 13
1005 51 30 8 147 24 260 34 171 16 416 42 442 48 3 0 11 -13 17 -31z m32 -125
c7 -32 13 -97 14 -145 0 -76 -3 -89 -20 -103 -96 -74 -354 -141 -660 -170
-166 -16 -652 -41 -659 -34 -4 4 -25 342 -21 347 1 1 87 9 191 17 570 46 918
86 1060 124 38 10 72 19 76 20 4 0 12 -25 19 -56z m-4148 -200 l6 -133 -35 0
-35 0 3 127 c3 126 3 127 28 133 14 4 26 6 26 6 1 -1 4 -61 7 -133z m1727 -58
c235 -9 565 -15 738 -13 l312 3 0 -55 c0 -30 3 -72 6 -92 l7 -38 -381 0 c-209
0 -623 7 -919 16 -586 17 -1420 24 -1494 11 -46 -8 -47 -8 -51 22 -5 34 5 41
58 41 l34 0 0 50 c0 34 5 52 14 56 70 27 964 26 1676 -1z"/>
<path d="M1782 2624 c-32 -22 -30 -69 4 -91 24 -15 29 -15 53 -2 36 20 41 71
9 93 -28 20 -38 20 -66 0z"/>
<path d="M2177 2622 c-23 -25 -21 -58 3 -82 24 -24 38 -25 68 -4 42 29 18 104
-35 104 -11 0 -27 -8 -36 -18z"/>
<path d="M1956 3244 c-9 -8 -16 -23 -16 -32 0 -13 4 -12 20 6 25 26 43 28 61
6 10 -12 10 -20 1 -35 -15 -24 -15 -29 2 -29 29 0 35 59 8 83 -23 21 -56 22
-76 1z"/>
<path d="M1857 3162 c-20 -21 -37 -41 -37 -45 0 -9 136 -77 143 -71 8 8 -15
77 -35 103 -10 13 -18 30 -18 37 0 23 -14 16 -53 -24z"/>
<path d="M2223 3098 c-22 -29 -22 -48 1 -74 18 -22 28 -26 50 -20 15 3 32 18
38 31 16 35 3 43 -21 14 -27 -32 -57 -16 -55 30 2 35 1 36 -13 19z"/>
<path d="M2484 2986 c-20 -53 29 -110 70 -82 26 17 42 43 32 53 -4 4 -14 0
-21 -10 -8 -11 -23 -17 -37 -15 -19 2 -23 9 -22 36 2 32 -12 44 -22 18z"/>
<path d="M2790 2864 c-12 -29 0 -58 30 -74 24 -13 67 5 76 32 8 27 -5 37 -21
15 -8 -11 -23 -17 -37 -15 -19 2 -23 9 -22 36 2 38 -13 42 -26 6z"/>
<path d="M3116 2775 c-32 -32 -18 -82 26 -98 20 -7 68 28 68 50 0 14 -4 12
-23 -5 -44 -41 -82 -18 -58 35 14 31 9 39 -13 18z"/>
<path d="M3387 2702 c-33 -36 -8 -92 41 -92 24 0 52 25 52 47 0 13 -5 12 -24
-6 -20 -19 -28 -21 -45 -12 -25 14 -26 29 -5 59 18 27 4 29 -19 4z"/>
</g>
</svg>
